<svg width="18" height="18" viewBox="0 0 18 18" fill="none" xmlns="http://www.w3.org/2000/svg">
<g opacity="0.3" clip-path="url(#clip0_2831_1636)">
<path d="M15.937 15.6252C16.3304 15.6252 16.6713 15.4953 16.961 15.2389L12.003 10.2806C11.8841 10.3658 11.7688 10.4486 11.6598 10.5274C11.2888 10.8008 10.9877 11.0141 10.7564 11.167C10.5252 11.3202 10.2176 11.4763 9.8336 11.6357C9.44935 11.7954 9.09137 11.8749 8.75928 11.8749H8.74956H8.73984C8.40773 11.8749 8.04975 11.7954 7.66552 11.6357C7.2813 11.4763 6.97368 11.3202 6.7427 11.167C6.51149 11.0141 6.21051 10.8008 5.83929 10.5274C5.73584 10.4516 5.62111 10.3684 5.49707 10.2793L0.538086 15.2389C0.827817 15.4953 1.16889 15.6252 1.56223 15.6252H15.937Z" fill="#686868"/>
<path d="M0.986433 7.15831C0.615429 6.91096 0.286427 6.62768 0 6.30859V13.8521L4.36999 9.48213C3.49574 8.87179 2.36932 8.09807 0.986433 7.15831Z" fill="#686868"/>
<path d="M16.524 7.15831C15.1939 8.05861 14.0633 8.83366 13.1323 9.48388L17.5005 13.8523V6.30859C17.2205 6.62126 16.895 6.90436 16.524 7.15831Z" fill="#686868"/>
<path d="M15.9377 1.875H1.56289C1.0614 1.875 0.675839 2.04435 0.405743 2.38269C0.135425 2.72119 0.000488281 3.14452 0.000488281 3.65221C0.000488281 4.0623 0.179557 4.50663 0.537535 4.98535C0.895513 5.46387 1.27643 5.83973 1.6801 6.11313C1.90139 6.26948 2.56874 6.73342 3.68213 7.50479C4.28317 7.92129 4.80585 8.28432 5.25502 8.5976C5.63787 8.86436 5.96805 9.09537 6.24066 9.28709C6.27195 9.30904 6.32117 9.34424 6.38649 9.39095C6.45687 9.4415 6.54592 9.50565 6.65579 9.58498C6.86736 9.738 7.04313 9.86169 7.18312 9.95618C7.32291 10.0507 7.49229 10.1563 7.691 10.2735C7.88954 10.3906 8.07681 10.4786 8.25257 10.5372C8.42837 10.5957 8.5911 10.6251 8.74081 10.6251H8.75054H8.76026C8.90994 10.6251 9.07271 10.5957 9.24854 10.5372C9.42427 10.4786 9.61137 10.3908 9.81008 10.2735C10.0086 10.1563 10.1777 10.0505 10.318 9.95618C10.458 9.86169 10.6337 9.73803 10.8453 9.58498C10.955 9.50565 11.044 9.44147 11.1144 9.39111C11.1798 9.34421 11.229 9.30923 11.2604 9.28709C11.4728 9.13931 11.8038 8.90925 12.2487 8.6003C13.0583 8.03777 14.2507 7.20982 15.8308 6.11313C16.306 5.78121 16.703 5.38066 17.0221 4.91205C17.3406 4.44344 17.5003 3.95189 17.5003 3.43756C17.5003 3.00784 17.3455 2.64014 17.0365 2.33389C16.7272 2.02802 16.3609 1.875 15.9377 1.875Z" fill="#686868"/>
</g>
<defs>
<clipPath id="clip0_2831_1636">
<rect width="17.5" height="17.5" fill="white"/>
</clipPath>
</defs>
</svg>
